<svg width="100" height="100" viewBox="0 0 30 30" fill="none" xmlns="http://www.w3.org/2000/svg">
<path d="M14 25.6667C20.4434 25.6667 25.6667 20.4433 25.6667 14C25.6667 7.55668 20.4434 2.33333 14 2.33333C7.55672 2.33333 2.33337 7.55668 2.33337 14C2.33337 20.4433 7.55672 25.6667 14 25.6667Z" fill="url(#paint0_linear)"/>
<path d="M9.33266 15.7404C9.00004 14.1751 7.5394 13 5.7847 13C4.39155 13 3.18157 13.7441 2.579 14.833C1.128 14.9781 -2.19742e-05 16.1351 -2.19742e-05 17.537C-2.19742e-05 19.0388 1.29672 20.2593 2.89234 20.2593H9.15912C10.4896 20.2593 11.5694 19.243 11.5694 17.9907C11.5694 16.793 10.5812 15.822 9.33266 15.7404Z" class="clouds" fill="url(#clouds)"/>
<path d="M25.2933 21.6425C24.8908 20.1331 23.1233 19 21 19C19.3142 19 17.85 19.7175 17.1208 20.7675C15.365 20.9075 14 22.0231 14 23.375C14 24.8231 15.5692 26 17.5 26H25.0833C26.6933 26 28 25.02 28 23.8125C28 22.6575 26.8042 21.7212 25.2933 21.6425Z" class="clouds" fill="url(#clouds)"/>
<path d="M20.6467 14.658C20.4454 13.711 19.5617 13 18.5 13C17.6571 13 16.925 13.4502 16.5604 14.109C15.6825 14.1969 15 14.8969 15 15.7451C15 16.6537 15.7846 17.3922 16.75 17.3922H20.5417C21.3467 17.3922 22 16.7773 22 16.0196C22 15.2949 21.4021 14.7075 20.6467 14.658Z" class="clouds" fill="url(#clouds)"/>
<defs>
<linearGradient id="paint0_linear" x1="14" y1="2.33333" x2="14" y2="25.6667" gradientUnits="userSpaceOnUse">
<stop stop-color="#FFC369"/>
<stop offset="0.494792" stop-color="#FFA285"/>
<stop offset="1" stop-color="#FF7777" stop-opacity="0.46"/>
</linearGradient>
<linearGradient id="clouds" x1="-11.4696" y1="12.0926" x2="-12.5877" y2="19.0926" gradientUnits="userSpaceOnUse">
<stop stop-color="white"/>
<stop offset="1" stop-color="#C5C5C5"/>
</linearGradient>
</defs>
</svg>
